HIERARCHY
ROOT root
{
	OFFSET	0	13.1	24.9
	CHANNELS 6  Xposition Yposition Zposition Xrotation Yrotation Zrotation
	JOINT spine_1
	{
		OFFSET	0	9.99999	0
		CHANNELS 3  Xrotation Yrotation Zrotation
		JOINT spine_2
		{
			OFFSET	0	112	-10
			CHANNELS 3  Xrotation Yrotation Zrotation
			JOINT spine_3
			{
				OFFSET	0	206.5	19.3
				CHANNELS 3  Xrotation Yrotation Zrotation
				JOINT spine_4
				{
					OFFSET	0	110.4	14.6
					CHANNELS 3  Xrotation Yrotation Zrotation
					JOINT neck_1
					{
						OFFSET	0	71.8	-50.3
						CHANNELS 3  Xrotation Yrotation Zrotation
						JOINT neck_2
						{
							OFFSET	0	86.2	-25.8
							CHANNELS 3  Xrotation Yrotation Zrotation
							JOINT head_ee
							{
								OFFSET	0	179.8	-8.7
								CHANNELS 3  Xrotation Yrotation Zrotation
								End Site
								{
									OFFSET	1	0	0
								}
							}
						}
					}
					JOINT left_clavicle
					{
						OFFSET	-43.2	22.4	-70.8
						CHANNELS 3  Xrotation Yrotation Zrotation
						JOINT left_shoulder
						{
							OFFSET	-93.9	-5.79999	48.7
							CHANNELS 3  Xrotation Yrotation Zrotation
							JOINT left_elbow
							{
								OFFSET	-291.4	-30.8	15.2
								CHANNELS 3  Xrotation Yrotation Zrotation
								JOINT left_lowarm_twist
								{
									OFFSET	-110.7	-3.89999	13.6
									CHANNELS 3  Xrotation Yrotation Zrotation
									JOINT left_hand
									{
										OFFSET	-110.7	-3.89999	13.6
										CHANNELS 3  Xrotation Yrotation Zrotation
										JOINT left_ee
										{
											OFFSET	-80.8	-5.10001	12.1
											CHANNELS 3  Xrotation Yrotation Zrotation
											End Site
											{
												OFFSET	1	0	0
											}
										}
									}
								}
							}
						}
					}
					JOINT right_clavicle
					{
						OFFSET	43.2	22.4	-70.8
						CHANNELS 3  Xrotation Yrotation Zrotation
						JOINT right_shoulder
						{
							OFFSET	93.9	-5.79999	48.7
							CHANNELS 3  Xrotation Yrotation Zrotation
							JOINT right_elbow
							{
								OFFSET	291.4	-30.8	15.2
								CHANNELS 3  Xrotation Yrotation Zrotation
								JOINT right_lowarm_twist
								{
									OFFSET	110.7	-3.89999	13.6
									CHANNELS 3  Xrotation Yrotation Zrotation
									JOINT right_hand
									{
										OFFSET	110.7	-3.89999	13.6
										CHANNELS 3  Xrotation Yrotation Zrotation
										JOINT right_ee
										{
											OFFSET	80.8	-5.10001	12.1
											CHANNELS 3  Xrotation Yrotation Zrotation
											End Site
											{
												OFFSET	1	0	0
											}
										}
									}
								}
							}
						}
					}
				}
			}
		}
	}
	JOINT left_hip
	{
		OFFSET	-82.8	-127.5	0.300001
		CHANNELS 3  Xrotation Yrotation Zrotation
		JOINT left_knee
		{
			OFFSET	-28.2	-396.7	2.2
			CHANNELS 3  Xrotation Yrotation Zrotation
			JOINT left_ankle
			{
				OFFSET	-11.7	-411.3	35.4
				CHANNELS 3  Xrotation Yrotation Zrotation
				JOINT left_toes
				{
					OFFSET	0	-60	-88.6
					CHANNELS 3  Xrotation Yrotation Zrotation
					JOINT left_foot_ee
					{
						OFFSET	-22.5	-16.5	-42.2
						CHANNELS 3  Xrotation Yrotation Zrotation
						End Site
						{
							OFFSET	1	0	0
						}
					}
				}
			}
		}
	}
	JOINT right_hip
	{
		OFFSET	82.8	-127.5	0.300001
		CHANNELS 3  Xrotation Yrotation Zrotation
		JOINT right_knee
		{
			OFFSET	28.2	-396.7	2.2
			CHANNELS 3  Xrotation Yrotation Zrotation
			JOINT right_ankle
			{
				OFFSET	11.7	-411.3	35.4
				CHANNELS 3  Xrotation Yrotation Zrotation
				JOINT right_toes
				{
					OFFSET	0	-60	-88.6
					CHANNELS 3  Xrotation Yrotation Zrotation
					JOINT right_foot_ee
					{
						OFFSET	22.5	-16.5	-42.2
						CHANNELS 3  Xrotation Yrotation Zrotation
						End Site
						{
							OFFSET	1	0	0
						}
					}
				}
			}
		}
	}
}
MOTION
Frames: 7
Frame Time: 0.02
3177.02 653.055 -1669.29 -113.881098353 87.2689484197 121.287196303 -0.385609 -0.20597 -2.2951 -0.382681 -0.0595496 -2.30355 -0.378621 0.4411 -2.26172 -0.385751 0.078466 -2.30298 -6.66509 2.32959 4.29282 -6.61467 1.19492 4.7635 -0.0 0.0 -0.0 0.573846 6.56142 1.81197 -27.8033 -37.4493 75.0785 0.810725 -21.8807 0.156716 56.1742 -1.44541 -6.74401 -2.65785 28.654 -3.16117 -0.0 0.0 -0.0 3.97897 4.44032 -7.42997 20.3538 27.2168 -54.0613 2.47003 50.7338 -1.17125 34.2326 0.0837456 4.30783 2.67411 13.5869 -12.2947 0.0 0.0 0.0 31.319 -25.5001 -2.60859 -7.23748 0.229626 1.08627 0.72653 24.6666 -0.110569 18.7534 -0.0 -0.0 -0.0 0.0 -0.0 -18.6731 -3.71182 -14.134 2.80046 0.125412 0.411367 28.6519 -1.9492 3.75291 25.5148 -0.0 -0.0 0.0 0.0 0.0 
3140.36070701 657.648 -1662.01728614 -68.3314070355 87.8173865231 76.2460534602 -0.344826 -0.21747 -2.63008 -0.340979 -0.0497299 -2.63858 -0.336571 0.52149 -2.58704 -0.345894 0.106519 -2.6369 -7.67756 2.98625 5.03128 -7.60878 1.97828 5.63175 -0.0 0.0 -0.0 1.21362 7.82775 3.07919 -26.8024 -37.22 74.3964 0.727677 -19.8227 0.12715 56.3219 -1.45763 -6.75845 -2.81021 28.7188 -3.94758 -0.0 0.0 -0.0 3.8519 3.51551 -7.23141 19.3781 27.1341 -54.6435 2.43739 50.3601 -1.14605 31.4067 -0.0207388 3.96212 2.79387 11.9717 -13.8664 0.0 0.0 0.0 30.6842 -25.2577 -1.75446 -11.7131 0.302339 1.76901 -2.81994 22.7108 0.428355 18.1964 -0.0 -0.0 -0.0 0.0 -0.0 -18.7784 -3.12663 -13.0768 -1.53109 -0.0600079 -0.227299 26.3041 -0.770958 3.4979 24.7723 -0.0 -0.0 0.0 0.0 0.0 
3122.26073354 659.221 -1655.70030915 -87.9461522312 88.076843424 95.5926668561 -0.210528 -0.382067 -2.67319 -0.206577 -0.211253 -2.69207 -0.194372 0.36854 -2.67509 -0.204353 -0.0584055 -2.6997 -8.88446 3.08283 5.77767 -8.79275 1.76381 6.39187 -0.0 0.0 -0.0 1.33209 8.89806 3.38349 -24.5276 -38.4146 74.2565 0.689319 -18.8535 0.114448 55.9223 -1.42464 -6.71929 -3.03994 28.5743 -5.26806 -0.0 0.0 -0.0 2.81205 3.22755 -5.18392 18.7865 26.7596 -55.1591 2.43166 50.2939 -1.14164 32.3923 0.0137627 4.08327 2.73804 9.25408 -14.7095 0.0 0.0 0.0 30.7409 -24.7128 -0.188666 -12.8192 0.312073 1.93845 -6.31367 21.8025 0.961322 19.72 -0.0 -0.0 -0.0 0.0 -0.0 -18.6555 -3.06424 -12.1625 -4.52882 -0.159792 -0.676489 25.5253 -0.386829 3.4113 24.4543 -0.0 -0.0 0.0 0.0 0.0 
3122.34661146 659.221 -1655.35882823 -98.5375009191 88.056535515 106.190013386 -0.210528 -0.382067 -2.67319 -0.206577 -0.211253 -2.69207 -0.194372 0.36854 -2.67509 -0.204353 -0.0584055 -2.6997 -8.88446 3.08283 5.77767 -8.79275 1.76381 6.39187 -0.0 0.0 -0.0 1.33209 8.89806 3.38349 -24.5276 -38.4146 74.2565 0.689319 -18.8535 0.114448 55.9223 -1.42464 -6.71929 -3.03994 28.5743 -5.26806 -0.0 0.0 -0.0 2.81205 3.22755 -5.18392 18.7865 26.7596 -55.1591 2.43166 50.2939 -1.14164 32.3923 0.0137627 4.08327 2.73804 9.25408 -14.7095 0.0 0.0 0.0 30.7409 -24.7128 -0.188666 -12.8192 0.312073 1.93845 -6.31367 21.8025 0.961322 19.72 -0.0 -0.0 -0.0 0.0 -0.0 -18.6555 -3.06424 -12.1625 -4.52882 -0.159792 -0.676489 25.5253 -0.386829 3.4113 24.4543 -0.0 -0.0 0.0 0.0 0.0 
3031.85477752 676.348 -1648.96994939 -65.4561103305 87.3797159096 73.6993067903 0.0483458 -0.69544 -3.04428 0.0533622 -0.50041 -3.08232 0.0832392 0.153966 -3.11884 0.0698279 -0.340286 -3.10406 -10.5383 2.67941 4.82872 -10.4746 1.82804 5.37498 -0.0 0.0 -0.0 3.51786 12.6212 7.34613 -23.0173 -43.1471 66.8849 0.695953 -19.0219 0.116601 56.2557 -1.45215 -6.75198 -4.50211 25.834 -15.1567 -0.0 0.0 -0.0 -0.207459 2.17865 0.667254 11.8592 24.8548 -57.1832 2.86768 54.846 -1.48815 32.7672 0.0274336 4.1292 2.84217 5.07727 -17.2661 0.0 0.0 0.0 27.7705 -22.9387 1.24049 -18.4728 0.310687 2.80553 -14.9504 20.5637 2.28961 24.5368 -0.0 -0.0 -0.0 0.0 -0.0 -18.0956 -1.12142 -10.1629 -11.0913 -0.295431 -1.67386 8.22174 -1.36111 1.18357 17.3577 -0.0 -0.0 0.0 0.0 0.0 
2973.96009243 679.709 -1649.99904289 -27.9587339161 85.9274432045 37.0282104904 0.256596 -0.661524 -3.48129 0.263231 -0.4388 -3.51627 0.293419 0.292041 -3.53147 0.276119 -0.268995 -3.53329 -9.84692 1.00885 4.1747 -9.79757 -0.936891 4.32372 -0.0 0.0 -0.0 4.60762 12.2446 9.17536 -21.1797 -43.1344 65.8033 0.667992 -18.3097 0.107652 59.1211 -1.69631 -7.02626 -5.18163 28.9479 -16.8499 -0.0 0.0 -0.0 -1.10352 1.19277 2.29597 6.04197 25.1341 -57.1666 2.91552 55.2906 -1.52737 32.2749 0.00954305 4.06887 3.16491 3.76726 -20.1199 0.0 0.0 0.0 23.753 -23.1053 0.821802 -20.1849 0.293395 3.06765 -11.5668 20.0063 1.76199 26.6089 -0.0 -0.0 -0.0 0.0 -0.0 -16.587 -1.54619 -8.78867 -16.4377 -0.321044 -2.49347 0.350375 -3.23627 0.0514403 15.2653 -0.0 -0.0 0.0 0.0 0.0 
2974.18399545 679.709 -1647.77204592 -32.7417472811 86.4704681739 41.8217023931 0.256596 -0.661524 -3.48129 0.263231 -0.4388 -3.51627 0.293419 0.292041 -3.53147 0.276119 -0.268995 -3.53329 -9.84692 1.00885 4.1747 -9.79757 -0.936891 4.32372 -0.0 0.0 -0.0 4.60762 12.2446 9.17536 -21.1797 -43.1344 65.8033 0.667992 -18.3097 0.107652 59.1211 -1.69631 -7.02626 -5.18163 28.9479 -16.8499 -0.0 0.0 -0.0 -1.10352 1.19277 2.29597 6.04197 25.1341 -57.1666 2.91552 55.2906 -1.52737 32.2749 0.00954305 4.06887 3.16491 3.76726 -20.1199 0.0 0.0 0.0 23.753 -23.1053 0.821802 -20.1849 0.293395 3.06765 -11.5668 20.0063 1.76199 26.6089 -0.0 -0.0 -0.0 0.0 -0.0 -16.587 -1.54619 -8.78867 -16.4377 -0.321044 -2.49347 0.350375 -3.23627 0.0514403 15.2653 -0.0 -0.0 0.0 0.0 0.0 
